<mxfile host="app.diagrams.net" modified="2024-04-29T01:13:32.017Z" agent="Mozilla/5.0 (X11; Linux x86_64) AppleWebKit/537.36 (KHTML, like Gecko) Chrome/124.0.0.0 Safari/537.36" etag="DyDfWm0r7YO2KuCbMEAw" version="24.3.1" type="device">
  <diagram name="PÃ¡gina-1" id="zu3X9mTsJZNNCBJnDLyG">
    <mxGraphModel dx="683" dy="359" grid="1" gridSize="10" guides="1" tooltips="1" connect="1" arrows="1" fold="1" page="1" pageScale="1" pageWidth="1169" pageHeight="827" math="0" shadow="0">
      <root>
        <mxCell id="0" />
        <mxCell id="1" parent="0" />
        <mxCell id="c3_xYH-ioq3AGylof6zB-17" style="edgeStyle=orthogonalEdgeStyle;rounded=0;orthogonalLoop=1;jettySize=auto;html=1;entryX=1;entryY=1;entryDx=0;entryDy=0;curved=1;endArrow=ERmandOne;endFill=0;startArrow=ERzeroToMany;startFill=0;" edge="1" parent="1" source="iu8zWwE64NxXyk6VKo1u-1" target="iu8zWwE64NxXyk6VKo1u-3">
          <mxGeometry relative="1" as="geometry" />
        </mxCell>
        <mxCell id="c3_xYH-ioq3AGylof6zB-26" value="R1" style="edgeLabel;html=1;align=center;verticalAlign=middle;resizable=0;points=[];" vertex="1" connectable="0" parent="c3_xYH-ioq3AGylof6zB-17">
          <mxGeometry x="0.0257" y="3" relative="1" as="geometry">
            <mxPoint as="offset" />
          </mxGeometry>
        </mxCell>
        <mxCell id="iu8zWwE64NxXyk6VKo1u-1" value="Cliente" style="rounded=0;whiteSpace=wrap;html=1;" parent="1" vertex="1">
          <mxGeometry x="520" y="450" width="120" height="60" as="geometry" />
        </mxCell>
        <mxCell id="iu8zWwE64NxXyk6VKo1u-2" value="&lt;div&gt;&lt;b&gt;&lt;u&gt;DNI&lt;/u&gt;&lt;/b&gt;&lt;br&gt;&lt;/div&gt;Tipo&lt;br&gt;ID_peluquero" style="text;html=1;align=center;verticalAlign=middle;whiteSpace=wrap;rounded=0;" parent="1" vertex="1">
          <mxGeometry x="640" y="450" width="80" height="60" as="geometry" />
        </mxCell>
        <mxCell id="iu8zWwE64NxXyk6VKo1u-3" value="Peluquero" style="rounded=0;whiteSpace=wrap;html=1;" parent="1" vertex="1">
          <mxGeometry x="520" y="310" width="120" height="60" as="geometry" />
        </mxCell>
        <mxCell id="iu8zWwE64NxXyk6VKo1u-4" value="&lt;b&gt;&lt;u&gt;ID_peluquero&lt;/u&gt;&lt;/b&gt;" style="text;html=1;align=center;verticalAlign=middle;whiteSpace=wrap;rounded=0;" parent="1" vertex="1">
          <mxGeometry x="535" y="370" width="90" height="23" as="geometry" />
        </mxCell>
        <mxCell id="iu8zWwE64NxXyk6VKo1u-5" value="Empleado" style="rounded=0;whiteSpace=wrap;html=1;" parent="1" vertex="1">
          <mxGeometry x="360" y="190" width="120" height="60" as="geometry" />
        </mxCell>
        <mxCell id="c3_xYH-ioq3AGylof6zB-12" style="edgeStyle=orthogonalEdgeStyle;rounded=0;orthogonalLoop=1;jettySize=auto;html=1;endArrow=none;endFill=0;" edge="1" parent="1" source="iu8zWwE64NxXyk6VKo1u-6">
          <mxGeometry relative="1" as="geometry">
            <mxPoint x="420" y="280" as="targetPoint" />
            <Array as="points">
              <mxPoint x="260" y="280" />
            </Array>
          </mxGeometry>
        </mxCell>
        <mxCell id="iu8zWwE64NxXyk6VKo1u-6" value="Administrativo" style="rounded=0;whiteSpace=wrap;html=1;" parent="1" vertex="1">
          <mxGeometry x="200" y="310" width="120" height="60" as="geometry" />
        </mxCell>
        <mxCell id="iu8zWwE64NxXyk6VKo1u-7" value="Auxiliar" style="rounded=0;whiteSpace=wrap;html=1;" parent="1" vertex="1">
          <mxGeometry x="360" y="310" width="120" height="60" as="geometry" />
        </mxCell>
        <mxCell id="c3_xYH-ioq3AGylof6zB-1" value="&lt;span style=&quot;color: rgb(0, 0, 0); font-family: Helvetica; font-size: 12px; font-style: normal; font-variant-ligatures: normal; font-variant-caps: normal; letter-spacing: normal; orphans: 2; text-indent: 0px; text-transform: none; widows: 2; word-spacing: 0px; -webkit-text-stroke-width: 0px; white-space: normal; background-color: rgb(251, 251, 251); text-decoration-thickness: initial; text-decoration-style: initial; text-decoration-color: initial; float: none; display: inline !important;&quot;&gt;&lt;b&gt;&lt;u&gt;ID_empleado&lt;/u&gt;&lt;/b&gt;&lt;br&gt;Nombre&lt;/span&gt;&lt;br style=&quot;forced-color-adjust: none; color: rgb(0, 0, 0); font-family: Helvetica; font-size: 12px; font-style: normal; font-variant-ligatures: normal; font-variant-caps: normal; font-weight: 400; letter-spacing: normal; orphans: 2; text-indent: 0px; text-transform: none; widows: 2; word-spacing: 0px; -webkit-text-stroke-width: 0px; white-space: normal; background-color: rgb(251, 251, 251); text-decoration-thickness: initial; text-decoration-style: initial; text-decoration-color: initial;&quot;&gt;&lt;span style=&quot;color: rgb(0, 0, 0); font-family: Helvetica; font-size: 12px; font-style: normal; font-variant-ligatures: normal; font-variant-caps: normal; font-weight: 400; letter-spacing: normal; orphans: 2; text-indent: 0px; text-transform: none; widows: 2; word-spacing: 0px; -webkit-text-stroke-width: 0px; white-space: normal; background-color: rgb(251, 251, 251); text-decoration-thickness: initial; text-decoration-style: initial; text-decoration-color: initial; float: none; display: inline !important;&quot;&gt;Direccion&lt;/span&gt;&lt;br style=&quot;forced-color-adjust: none; color: rgb(0, 0, 0); font-family: Helvetica; font-size: 12px; font-style: normal; font-variant-ligatures: normal; font-variant-caps: normal; font-weight: 400; letter-spacing: normal; orphans: 2; text-indent: 0px; text-transform: none; widows: 2; word-spacing: 0px; -webkit-text-stroke-width: 0px; white-space: normal; background-color: rgb(251, 251, 251); text-decoration-thickness: initial; text-decoration-style: initial; text-decoration-color: initial;&quot;&gt;&lt;span style=&quot;color: rgb(0, 0, 0); font-family: Helvetica; font-size: 12px; font-style: normal; font-variant-ligatures: normal; font-variant-caps: normal; font-weight: 400; letter-spacing: normal; orphans: 2; text-indent: 0px; text-transform: none; widows: 2; word-spacing: 0px; -webkit-text-stroke-width: 0px; white-space: normal; background-color: rgb(251, 251, 251); text-decoration-thickness: initial; text-decoration-style: initial; text-decoration-color: initial; float: none; display: inline !important;&quot;&gt;Telefono&lt;br&gt;&lt;/span&gt;" style="text;whiteSpace=wrap;html=1;align=center;" vertex="1" parent="1">
          <mxGeometry x="375" y="120" width="90" height="70" as="geometry" />
        </mxCell>
        <mxCell id="c3_xYH-ioq3AGylof6zB-2" value="&lt;b&gt;&lt;u&gt;ID_auxiliar&lt;/u&gt;&lt;/b&gt;&lt;br&gt;Cursos" style="text;html=1;align=center;verticalAlign=middle;whiteSpace=wrap;rounded=0;" vertex="1" parent="1">
          <mxGeometry x="375" y="370" width="90" height="30" as="geometry" />
        </mxCell>
        <mxCell id="c3_xYH-ioq3AGylof6zB-3" value="&lt;b&gt;&lt;u&gt;ID_administrativo&lt;/u&gt;&lt;/b&gt;" style="text;html=1;align=center;verticalAlign=middle;whiteSpace=wrap;rounded=0;" vertex="1" parent="1">
          <mxGeometry x="215" y="370" width="90" height="23" as="geometry" />
        </mxCell>
        <mxCell id="c3_xYH-ioq3AGylof6zB-5" value="&lt;b&gt;&lt;u&gt;N_pedido&lt;/u&gt;&lt;/b&gt;&lt;br&gt;fecha_atencion&lt;br&gt;horario_turno&lt;br&gt;ID_administrativo" style="text;html=1;align=center;verticalAlign=middle;whiteSpace=wrap;rounded=0;" vertex="1" parent="1">
          <mxGeometry x="170" y="440" width="110" height="70" as="geometry" />
        </mxCell>
        <mxCell id="c3_xYH-ioq3AGylof6zB-18" style="edgeStyle=orthogonalEdgeStyle;rounded=0;orthogonalLoop=1;jettySize=auto;html=1;entryX=1;entryY=1;entryDx=0;entryDy=0;curved=1;endArrow=ERmandOne;endFill=0;startArrow=ERzeroToMany;startFill=0;" edge="1" parent="1" source="c3_xYH-ioq3AGylof6zB-6" target="iu8zWwE64NxXyk6VKo1u-6">
          <mxGeometry relative="1" as="geometry" />
        </mxCell>
        <mxCell id="c3_xYH-ioq3AGylof6zB-27" value="R2" style="edgeLabel;html=1;align=center;verticalAlign=middle;resizable=0;points=[];" vertex="1" connectable="0" parent="c3_xYH-ioq3AGylof6zB-18">
          <mxGeometry x="-0.14" y="2" relative="1" as="geometry">
            <mxPoint as="offset" />
          </mxGeometry>
        </mxCell>
        <mxCell id="c3_xYH-ioq3AGylof6zB-20" style="edgeStyle=orthogonalEdgeStyle;rounded=0;orthogonalLoop=1;jettySize=auto;html=1;exitX=1;exitY=0;exitDx=0;exitDy=0;entryX=1;entryY=1;entryDx=0;entryDy=0;curved=1;endArrow=ERzeroToOne;endFill=0;startArrow=ERzeroToMany;startFill=0;" edge="1" parent="1" source="c3_xYH-ioq3AGylof6zB-7" target="iu8zWwE64NxXyk6VKo1u-7">
          <mxGeometry relative="1" as="geometry">
            <Array as="points">
              <mxPoint x="450" y="570" />
              <mxPoint x="450" y="430" />
              <mxPoint x="480" y="430" />
            </Array>
          </mxGeometry>
        </mxCell>
        <mxCell id="c3_xYH-ioq3AGylof6zB-29" value="R3" style="edgeLabel;html=1;align=center;verticalAlign=middle;resizable=0;points=[];" vertex="1" connectable="0" parent="c3_xYH-ioq3AGylof6zB-20">
          <mxGeometry x="0.0508" y="-2" relative="1" as="geometry">
            <mxPoint as="offset" />
          </mxGeometry>
        </mxCell>
        <mxCell id="c3_xYH-ioq3AGylof6zB-21" style="edgeStyle=orthogonalEdgeStyle;rounded=0;orthogonalLoop=1;jettySize=auto;html=1;entryX=0.5;entryY=0;entryDx=0;entryDy=0;startArrow=ERmandOne;startFill=0;endArrow=ERoneToMany;endFill=0;" edge="1" parent="1" source="c3_xYH-ioq3AGylof6zB-6" target="c3_xYH-ioq3AGylof6zB-7">
          <mxGeometry relative="1" as="geometry" />
        </mxCell>
        <mxCell id="c3_xYH-ioq3AGylof6zB-30" value="R4" style="edgeLabel;html=1;align=center;verticalAlign=middle;resizable=0;points=[];" vertex="1" connectable="0" parent="c3_xYH-ioq3AGylof6zB-21">
          <mxGeometry x="-0.0429" y="2" relative="1" as="geometry">
            <mxPoint as="offset" />
          </mxGeometry>
        </mxCell>
        <mxCell id="c3_xYH-ioq3AGylof6zB-6" value="Pedido" style="rounded=0;whiteSpace=wrap;html=1;" vertex="1" parent="1">
          <mxGeometry x="280" y="450" width="120" height="60" as="geometry" />
        </mxCell>
        <mxCell id="c3_xYH-ioq3AGylof6zB-22" style="edgeStyle=orthogonalEdgeStyle;rounded=0;orthogonalLoop=1;jettySize=auto;html=1;entryX=0;entryY=0.5;entryDx=0;entryDy=0;startArrow=ERmandOne;startFill=0;endArrow=ERzeroToMany;endFill=0;" edge="1" parent="1" source="c3_xYH-ioq3AGylof6zB-7" target="c3_xYH-ioq3AGylof6zB-9">
          <mxGeometry relative="1" as="geometry" />
        </mxCell>
        <mxCell id="c3_xYH-ioq3AGylof6zB-31" value="R5" style="edgeLabel;html=1;align=center;verticalAlign=middle;resizable=0;points=[];" vertex="1" connectable="0" parent="c3_xYH-ioq3AGylof6zB-22">
          <mxGeometry x="-0.0321" y="-1" relative="1" as="geometry">
            <mxPoint as="offset" />
          </mxGeometry>
        </mxCell>
        <mxCell id="c3_xYH-ioq3AGylof6zB-7" value="Servicio" style="rounded=0;whiteSpace=wrap;html=1;" vertex="1" parent="1">
          <mxGeometry x="280" y="570" width="120" height="60" as="geometry" />
        </mxCell>
        <mxCell id="c3_xYH-ioq3AGylof6zB-8" value="&lt;b&gt;&lt;u&gt;ID_servicio&lt;/u&gt;&lt;/b&gt;&lt;br&gt;N_pedido&lt;br&gt;Tipo&lt;br&gt;ID_auxiliar" style="text;html=1;align=center;verticalAlign=middle;whiteSpace=wrap;rounded=0;" vertex="1" parent="1">
          <mxGeometry x="200" y="570" width="80" height="60" as="geometry" />
        </mxCell>
        <mxCell id="c3_xYH-ioq3AGylof6zB-9" value="Producto" style="rounded=0;whiteSpace=wrap;html=1;" vertex="1" parent="1">
          <mxGeometry x="480" y="570" width="120" height="60" as="geometry" />
        </mxCell>
        <mxCell id="c3_xYH-ioq3AGylof6zB-10" value="&lt;b&gt;&lt;u&gt;ID_producto&lt;/u&gt;&lt;/b&gt;&lt;br&gt;ID_servicio&lt;br&gt;cantidad" style="text;html=1;align=center;verticalAlign=middle;whiteSpace=wrap;rounded=0;" vertex="1" parent="1">
          <mxGeometry x="600" y="570" width="70" height="60" as="geometry" />
        </mxCell>
        <mxCell id="c3_xYH-ioq3AGylof6zB-11" value="" style="endArrow=ERmandOne;html=1;rounded=0;entryX=0.5;entryY=1;entryDx=0;entryDy=0;endFill=0;exitX=0.5;exitY=0;exitDx=0;exitDy=0;" edge="1" parent="1" source="iu8zWwE64NxXyk6VKo1u-7" target="iu8zWwE64NxXyk6VKo1u-5">
          <mxGeometry width="50" height="50" relative="1" as="geometry">
            <mxPoint x="420" y="300" as="sourcePoint" />
            <mxPoint x="430" y="270" as="targetPoint" />
          </mxGeometry>
        </mxCell>
        <mxCell id="c3_xYH-ioq3AGylof6zB-15" value="Es un" style="edgeLabel;html=1;align=center;verticalAlign=middle;resizable=0;points=[];" vertex="1" connectable="0" parent="c3_xYH-ioq3AGylof6zB-11">
          <mxGeometry x="0.6133" y="1" relative="1" as="geometry">
            <mxPoint x="1" y="8" as="offset" />
          </mxGeometry>
        </mxCell>
        <mxCell id="c3_xYH-ioq3AGylof6zB-14" value="" style="endArrow=none;html=1;rounded=0;edgeStyle=orthogonalEdgeStyle;exitX=0.5;exitY=0;exitDx=0;exitDy=0;" edge="1" parent="1" source="iu8zWwE64NxXyk6VKo1u-3">
          <mxGeometry width="50" height="50" relative="1" as="geometry">
            <mxPoint x="580" y="300" as="sourcePoint" />
            <mxPoint x="420" y="280" as="targetPoint" />
            <Array as="points">
              <mxPoint x="580" y="280" />
            </Array>
          </mxGeometry>
        </mxCell>
      </root>
    </mxGraphModel>
  </diagram>
</mxfile>
